<svg width="52" height="40" viewBox="0 0 52 40" fill="none" xmlns="http://www.w3.org/2000/svg">
<path d="M34.725 0.0504668C37.0181 -0.0555993 39.9203 0.0276656 42.2119 0.0983321C42.2006 0.192466 42.1854 0.286067 42.1664 0.378941C41.8408 1.911 41.0624 3.82841 40.3836 5.2363C38.1504 9.86787 34.6997 13.8272 30.6665 16.9832C29.8353 17.6336 28.93 18.2068 28.0518 18.7927C28.3241 18.9567 28.5931 19.1265 28.8585 19.3018C35.7758 23.834 41.3678 31.8142 43.062 39.9229C40.7451 39.9342 38.5905 40.1059 36.2652 39.8971C27.5497 39.1155 19.9687 34.8815 14.5197 28.1025C14.268 27.7896 13.6536 27.0777 13.5394 26.7131C13.1311 25.4111 13.3704 23.1048 13.4938 21.7475C14.5157 23.8712 17.0384 26.9219 18.6661 28.548C24.0144 33.8911 31.5949 37.2335 39.1879 37.2275C36.577 30.3014 32.3796 24.9743 26.1532 20.8472C24.7773 19.9351 23.5241 19.3975 22.047 18.7042L22.2217 18.643C27.3805 16.8253 32.6325 12.0664 35.6876 7.55742C36.8604 5.82636 37.5008 4.60023 38.384 2.7572C27.3576 2.35349 17.2031 7.58029 12.7831 17.9896C11.9453 20.0103 11.3058 23.2195 11.3532 25.4098C11.4474 29.8022 13.0446 34.0303 15.8784 37.388C16.7338 38.4009 17.4552 39.0307 18.39 39.9289C16.6899 40.0383 14.6059 39.9481 12.8688 39.97C8.60677 40.0237 4.26456 39.8958 0.00914543 39.9892C0.0918308 39.0545 0.0310928 37.2726 0.0236664 36.2789C0.0025806 34.0893 -0.00444862 31.8997 0.00271258 29.7108L0.0496588 10.1259L0.0483334 3.12147C0.0473387 2.15853 -0.00458077 1.0573 0.0276447 0.120007C1.51412 0.0496057 3.46588 0.10728 4.97982 0.108407L14.3367 0.114241C15.6214 0.114971 17.2521 0.166875 18.5008 0.102572C15.7652 2.52698 13.5477 5.20143 12.3424 8.68371C11.6726 10.6189 11.9199 11.2514 10.5853 12.9427C9.90507 13.8048 8.90064 16.0538 8.5138 17.0814C8.502 17.0139 8.49106 16.9462 8.48085 16.8784C7.74119 11.9253 9.28125 6.89013 12.247 2.91001C9.1477 2.88024 6.04816 2.87587 2.94875 2.89695C3.02494 5.48827 2.96089 8.42438 2.96148 11.0386L2.96221 28.1516C2.96228 31.1135 2.90784 34.2663 2.97448 37.2176C6.01872 37.2733 9.17635 37.2289 12.2327 37.2335C11.6033 36.4234 11.0004 35.3979 10.5224 34.493C6.2996 26.5036 8.41799 16.9454 14.1324 10.265C18.3967 5.24465 24.2332 1.81282 30.6943 0.52664C32.0921 0.255243 33.3133 0.163096 34.725 0.0504668Z" fill="black"/>
<path d="M41.5888 8.84229C42.5443 10.0068 44.2595 11.9064 44.4281 13.4111C44.6684 15.5554 42.7619 16.472 41.8258 17.7106L41.7758 17.778C41.9463 16.3577 41.8541 15.9057 41.5835 14.511C41.4144 15.2383 41.3041 15.8867 41.2512 16.6281C41.1466 18.0923 41.5806 17.5094 42.2118 18.2597L42.2755 18.2784C42.1935 18.4842 42.2121 18.5241 42.2693 18.7418L42.2506 18.7752C42.0497 18.9683 41.8382 19.205 41.5501 19.1607C40.5466 19.0066 40.732 18.3105 41.3271 17.8318C40.3543 16.5748 38.8814 15.893 38.7177 13.9813C38.5609 12.1503 40.4378 10.1761 41.5888 8.84229Z" fill="black"/>
<path d="M41.8374 19.2339C42.7139 20.5132 44.3084 21.2452 44.4782 23.2302C44.6294 24.9969 42.7358 27.0022 41.6144 28.3081C41.0293 27.7685 40.3626 26.8344 39.8685 26.1742C39.2933 25.4079 38.7417 24.4645 38.6866 23.4967C38.5761 21.5538 40.0931 20.5634 41.2365 19.2831C41.2845 20.7425 41.3853 21.4791 41.5832 22.9465C41.7715 21.5973 41.969 20.605 41.8374 19.2339Z" fill="black"/>
<path d="M42.2118 18.26L42.2847 18.2177C43.6393 17.4215 44.5509 15.1361 47.1055 15.752C48.3109 16.0426 50.4454 17.6747 51.377 18.5418C50.2054 19.6776 48.0371 21.4898 46.339 21.4537C44.6599 21.418 43.5371 19.827 42.2506 18.7754L42.2693 18.742C43.5162 18.9804 44.3379 18.7656 45.5678 18.5282C44.1979 18.2955 43.6607 18.1759 42.2755 18.2787L42.2118 18.26Z" fill="black"/>
<path d="M36.204 15.6818C36.3192 15.6743 36.4345 15.6686 36.5499 15.6648C38.2821 15.6108 38.9324 16.5405 40.0477 17.6487C40.2812 17.8808 40.5623 18.0493 40.8113 18.2833C39.5043 18.1689 38.7233 18.3221 37.4492 18.5199C38.4685 18.844 39.7812 18.8701 40.8358 18.764C40.1 19.3441 39.4905 19.9334 38.8243 20.5921C36.3133 22.7699 33.6393 20.2482 31.738 18.5315C33.2005 17.266 34.3279 16.2553 36.204 15.6818Z" fill="black"/>
<path d="M14.4473 19.8955C14.5187 19.9379 15.881 21.9491 16.0663 22.1977C17.0138 23.4748 18.0332 24.6972 19.1194 25.8587C21.8726 28.8431 24.3962 30.8809 27.8379 32.9744C27.2762 32.8802 25.1799 31.6108 24.6217 31.2667C20.2288 28.558 16.5926 24.6197 14.4473 19.8955Z" fill="black"/>
</svg>
